<svg xmlns="http://www.w3.org/2000/svg" width="61.398" height="60.958" viewBox="0 0 61.398 60.958">
  <g id="Group_152" data-name="Group 152" transform="translate(0 -0.001)">
    <path id="Path_74" data-name="Path 74" d="M166.44,51.2H146V75.542h20.44Z" transform="translate(-105.08 -51.2)" fill="#1b2443"/>
    <path id="Path_75" data-name="Path 75" d="M105.659,81.336V78.319H85.22v.443L61.561,51.2H44.3v9.254L57.175,75.542H44.3v2.776H59.549l2.575,3.018H44.3v2.776H64.5l2.575,3.018H44.3v2.776H69.447l2.575,3.018H44.3V95.7H74.356L88.4,112.157h17.261V102.54h0V102.1h0V95.66H99.986c-.8-.925-1.65-1.851-2.454-2.776h8.128V89.866H94.876c-.684-.764-1.368-1.529-2.012-2.293l-.4-.443H105.7V84.113H89.887L87.473,81.3h18.187Z" transform="translate(-44.3 -51.2)" fill="#1b2443"/>
  </g>
</svg>
