<?xml version="1.0" encoding="UTF-8"?>
<svg xmlns="http://www.w3.org/2000/svg" xmlns:xlink="http://www.w3.org/1999/xlink" width="48pt" height="48pt" viewBox="0 0 48 48" version="1.1">
<g id="surface1">
<path style=" stroke:none;fill-rule:nonzero;fill:#F44336;fill-opacity:1;" d="M 44 24 C 44 35.046875 35.046875 44 24 44 C 12.953125 44 4 35.046875 4 24 C 4 12.953125 12.953125 4 24 4 C 35.046875 4 44 12.953125 44 24 Z "/>
<path style=" stroke:none;fill-rule:nonzero;fill:#FFCDD2;fill-opacity:1;" d="M 33.039063 14.667969 L 30.40625 17.679688 C 32.007813 19.304688 33 21.535156 33 24 C 33 28.972656 28.972656 33 24 33 C 19.027344 33 15 28.972656 15 24 C 15 21.535156 15.992188 19.304688 17.597656 17.679688 L 14.960938 14.667969 C 12.523438 17.03125 11 20.335938 11 24 C 11 31.179688 16.820313 37 24 37 C 31.179688 37 37 31.179688 37 24 C 37 20.335938 35.480469 17.03125 33.039063 14.667969 Z "/>
<path style=" stroke:none;fill-rule:nonzero;fill:#FFCDD2;fill-opacity:1;" d="M 22 11 L 26 11 L 26 23 L 22 23 Z "/>
</g>
</svg>
