<svg id="Group_269" data-name="Group 269" xmlns="http://www.w3.org/2000/svg" width="45.111" height="44.788" viewBox="0 0 45.111 44.788">
  <path id="Path_74" data-name="Path 74" d="M161.018,51.2H146V69.086h15.018Z" transform="translate(-115.934 -51.2)" fill="#fff"/>
  <path id="Path_75" data-name="Path 75" d="M89.384,73.343V71.125H74.366v.325L56.983,51.2H44.3V58l9.46,11.086H44.3v2.04H55.5L57.4,73.343H44.3v2.04H59.141L61.033,77.6H44.3v2.04H62.777l1.892,2.217H44.3V83.9H66.384L76.7,95.988H89.384V88.922h0V88.6h0v-4.73H85.215c-.591-.68-1.212-1.36-1.8-2.04h5.972V79.61H81.461c-.5-.562-1.005-1.123-1.478-1.685l-.3-.325h9.726V75.382H77.795l-1.774-2.069H89.384Z" transform="translate(-44.3 -51.2)" fill="#fff"/>
</svg>
